<?xml version="1.0" encoding="utf-8"?><!-- Uploaded to: SVG Repo, www.svgrepo.com, Generator: SVG Repo Mixer Tools -->
<svg fill="#000000" width="72px" height="72px" viewBox="0 0 24 24" id="ambulance" data-name="Line Color" xmlns="http://www.w3.org/2000/svg" class="icon line-color"><path id="primary" d="M4.84,17H4a1,1,0,0,1-1-1V6A1,1,0,0,1,4,5H16.52a1,1,0,0,1,.78.38l3.48,4.35a1,1,0,0,1,.22.62V16a1,1,0,0,1-1,1h-.83" style="fill: none; stroke: rgb(0, 0, 0); stroke-linecap: round; stroke-linejoin: round; stroke-width: 2;"></path><line id="primary-2" data-name="primary" x1="14.89" y1="17" x2="9.12" y2="17" style="fill: none; stroke: rgb(0, 0, 0); stroke-linecap: round; stroke-linejoin: round; stroke-width: 2;"></line><path id="secondary" d="M9,17a2,2,0,1,1-2-2A2,2,0,0,1,9,17Zm10,0a2,2,0,1,1-2-2A2,2,0,0,1,19,17Zm-9-6h4M12,9v4" style="fill: none; stroke: rgb(44, 169, 188); stroke-linecap: round; stroke-linejoin: round; stroke-width: 2;"></path></svg>