<?xml version="1.0" encoding="utf-8"?><!-- Uploaded to: SVG Repo, www.svgrepo.com, Generator: SVG Repo Mixer Tools -->
<svg fill="#000000" width="120px" height="40px" viewBox="0 0 24 24" id="app-store-circle" data-name="Flat Color" xmlns="http://www.w3.org/2000/svg" class="icon flat-color"><circle id="primary" cx="12" cy="12" r="10" style="fill: rgb(0, 0, 0);"></circle><path id="secondary" d="M17,14a1,1,0,0,0-1-1h-.81L13.11,8.8l.68-1.36A1,1,0,0,0,12,6.55a1,1,0,0,0-1.79.89l.68,1.36L8.81,13H8a1,1,0,0,0-1,1,1,1,0,0,0,.84,1l-.29.59A1,1,0,0,0,8,16.9a1,1,0,0,0,.44.1,1,1,0,0,0,.9-.56L10.05,15H14l.71,1.44a1,1,0,0,0,.9.56,1,1,0,0,0,.44-.1,1,1,0,0,0,.45-1.34L16.17,15A1,1,0,0,0,17,14Zm-6-1,1-1.94L13,13Z" style="fill: rgb(44, 169, 188);"></path></svg>